# xmcd
#
# Track frame offsets: 
#        150
#        10307
#        20665
#        30742
#        40634
#        51817
#        61400
#        73045
#        82036
#        95953
#        106698
#        115629
#        126711
#        142606
#        155855
#        166381
#        179835
#        190684
#        202950
#        219963
#        232032
#        245010
#        255090
#        267987
#        278340
#
# Disc length: 3896 seconds
#
# Revision: 0
# Processed by: cddbd v1.5.2PL0 Copyright (c) Steve Scherf et al.
# Submitted via: ExactAudioCopy v1.3
#
DISCID=620f3619
DTITLE=Sonny James - The Capitol Hits 1963-1972_CD1
DYEAR=2019
DGENRE=Country
TTITLE0=Bad Times A-Comin'
TTITLE1=Gold And Silver
TTITLE2=Least Of All You
TTITLE3=Sugar Lump
TTITLE4=Tying The Pieces Together
TTITLE5=I'm Getting Gray From Being Blue
TTITLE6=Runnin'
TTITLE7=Just Ask Your Heart
TTITLE8=On The Fingers Of One Hand
TTITLE9=How Many Times Can A Man Be A Fool
TTITLE10=On And On
TTITLE11=I'll Never Find Another You
TTITLE12=Goodbye Maggie, Goodbye
TTITLE13=It's The Little Things
TTITLE14=Don't Cut Timber On A Windy Day
TTITLE15=An Old Sweetheart Of Mine
TTITLE16=Fairy Tales
TTITLE17=In Waikiki
TTITLE18=The Journey
TTITLE19=A Midnight Mood
TTITLE20=Since I Met You Baby
TTITLE21=Clinging To A Hope
TTITLE22=This World Of Ours
TTITLE23=Blue For You
TTITLE24=Woodbine Valley
EXTD=
EXTT0=
EXTT1=
EXTT2=
EXTT3=
EXTT4=
EXTT5=
EXTT6=
EXTT7=
EXTT8=
EXTT9=
EXTT10=
EXTT11=
EXTT12=
EXTT13=
EXTT14=
EXTT15=
EXTT16=
EXTT17=
EXTT18=
EXTT19=
EXTT20=
EXTT21=
EXTT22=
EXTT23=
EXTT24=
PLAYORDER=
